# Blender v3.0.0 OBJ File: ''
# www.blender.org
mtllib part.mtl
o 棱角球
v 0.000000 -1.641543 0.000000
v 1.128634 -0.697530 0.819989
v -0.544500 -0.881036 1.675856
v -0.961555 -0.480779 0.000000
v -0.386856 -0.625962 -1.190654
v 1.408251 -0.870336 -1.023139
v 0.406278 0.657387 1.250430
v -0.299462 0.185094 0.217571
v -0.667210 0.412365 -0.484751
v 0.376982 0.609985 -1.160262
v 1.358765 0.679377 0.000000
v 0.000000 0.375845 0.000000
vt 0.181819 0.000000
vt 0.272728 0.157461
vt 0.090910 0.157461
vt 0.363637 0.000000
vt 0.454546 0.157461
vt 0.909091 0.000000
vt 1.000000 0.157461
vt 0.818182 0.157461
vt 0.727273 0.000000
vt 0.636364 0.157461
vt 0.545455 0.000000
vt 0.363637 0.314921
vt 0.181819 0.314921
vt 0.909091 0.314921
vt 0.727273 0.314921
vt 0.545455 0.314921
vt 0.000000 0.314921
vt 0.272728 0.472382
vt 0.090910 0.472382
vt 0.818182 0.472382
vt 0.636364 0.472382
vt 0.454546 0.472382
vn 0.3333 -0.8131 0.4773
vn 0.5616 -0.8115 0.1613
vn -0.7695 -0.6374 0.0393
vn -0.7388 -0.6120 -0.2820
vn -0.0447 -0.7672 -0.6399
vn 0.9851 -0.0716 0.1562
vn 0.4584 -0.0377 0.8880
vn -0.7215 0.6111 0.3255
vn -0.8964 0.0568 -0.4396
vn 0.0888 -0.0304 -0.9956
vn 0.7734 0.2239 0.5931
vn -0.7809 0.5594 0.2778
vn -0.6838 0.5091 0.5228
vn -0.5538 0.3607 -0.7505
vn 0.6808 0.4186 -0.6011
vn -0.2156 0.9653 -0.1473
vn -0.5436 0.8393 -0.0124
vn -0.2542 0.8733 0.4157
vn -0.0730 0.9820 0.1744
vn -0.2163 0.9683 0.1251
usemtl None
s off
f 1/1/1 2/2/1 3/3/1
f 2/2/2 1/4/2 6/5/2
f 1/6/3 3/7/3 4/8/3
f 1/9/4 4/8/4 5/10/4
f 1/11/5 5/10/5 6/5/5
f 2/2/6 6/5/6 11/12/6
f 3/3/7 2/2/7 7/13/7
f 4/8/8 3/7/8 8/14/8
f 5/10/9 4/8/9 9/15/9
f 6/5/10 5/10/10 10/16/10
f 2/2/11 11/12/11 7/13/11
f 3/3/12 7/13/12 8/17/12
f 4/8/13 8/14/13 9/15/13
f 5/10/14 9/15/14 10/16/14
f 6/5/15 10/16/15 11/12/15
f 7/13/16 11/12/16 12/18/16
f 8/17/17 7/13/17 12/19/17
f 9/15/18 8/14/18 12/20/18
f 10/16/19 9/15/19 12/21/19
f 11/12/20 10/16/20 12/22/20
